<svg xmlns="http://www.w3.org/2000/svg" data-name="Layer 1" viewBox="0 0 100 125" x="0px" y="0px"><title>Artboard 15</title><path d="M21.3,21.55,19.65,15l-.2-.78-.12-.45c-.05-.17-.1-.34-.16-.51a8.93,8.93,0,0,0-.92-1.86A8.35,8.35,0,0,0,15.4,8.71a8.09,8.09,0,0,0-3.45-1c-.29,0-.57,0-.86,0l-.66,0-1.27.08C7.51,7.88,6,8,4.66,8.1c-.37,0-.66.68-.63,1.44s.3,1.21.63,1.24c1.34.12,2.85.23,4.5.33l1.27.08.65,0c.16,0,.32,0,.48.07a4.54,4.54,0,0,1,3.16,2.27,4.92,4.92,0,0,1,.38,1l.05.26,0,.13,0,.2.15.79,1.26,6.67c1.79,9.24,4,19.78,6.28,30.29l1.72,7.86.83,3.89.42,1.93.06.25.09.34a6.13,6.13,0,0,0,.2.67,9.12,9.12,0,0,0,.55,1.28,9,9,0,0,0,3.83,3.8,8.76,8.76,0,0,0,2.54.86,8.9,8.9,0,0,0,1.32.13h1l7.29-.15c9.41-.23,17.47-.57,22.83-1,.38,0,.68-.7.65-1.47S66,70,65.61,69.92c-5.36-.46-13.42-.81-22.83-1l-7.29-.15h-.84a3.79,3.79,0,0,1-.56-.07,3.61,3.61,0,0,1-1-.4,3.78,3.78,0,0,1-1.54-1.62,3.84,3.84,0,0,1-.21-.53,1.73,1.73,0,0,1-.07-.28l0-.14,0-.23-.39-1.94L30,59.59c-.09-.46-.19-.92-.29-1.38,8.69,1.32,26.35,1.16,32.64-.49.13,0,.22-.7.21-1.47h0c0-.7-.1-1.25-.21-1.28-6.49-1.7-25-1.82-33.4-.37l-.63-2.9c-1.7-7.73-3.45-15.44-5.16-22.62,12.74,1.25,40.82,1.52,59.68.79-.64,4.34-1.06,7.77-1.25,10.36,0,.27.58.6,1.32.72s1.23,0,1.3-.21c1-3,2.11-7.19,3.44-12.79a2.31,2.31,0,0,0,.06-.4,2.17,2.17,0,0,0-2.07-2.26h-.19c-3.21-.15-6.76-.26-10.5-.34a53,53,0,0,0,.72-5.79c.11-1.48.2-3.07.26-4.71l0-1.24v-.7a4.92,4.92,0,0,0-4.34-4.8,6.08,6.08,0,0,0-.65,0H70l-1.26,0-2.49.07c-1.64.06-3.23.15-4.71.27a52.37,52.37,0,0,0-5.82.74V8.46l.06-2.23a5.36,5.36,0,0,0-.26-2,4.85,4.85,0,0,0-1.39-2.06A4.84,4.84,0,0,0,51.26,1l-.46,0h-.58L47.87.9l-4.73,0-4.73,0-2.34,0h-.73L35,1a5,5,0,0,0-.63.09,4.9,4.9,0,0,0-2.24,1.13,4.84,4.84,0,0,0-1.37,2.06,5.37,5.37,0,0,0-.25,2l.06,2.23.15,4.29c.22,5.1.53,9.5.95,12.63-3.62.18-6.78.41-9.28.67C22,24.52,21.66,23,21.3,21.55Zm49.22-8.84s0,0,0,0S70.52,12.67,70.52,12.71Zm-9,.11c1.48.12,3.07.21,4.71.27l2.49.07,1.78,0v0l0,1.24c.06,1.64.14,3.23.26,4.71a53.45,53.45,0,0,0,.7,5.73c-5.44-.09-11.17-.12-16.8-.08.37-3.08.66-7.27.86-12.06l0-.69A51.39,51.39,0,0,0,61.55,12.82ZM50.55,6s0-.2,0,0ZM35.73,6c0-.2,0,0,0,0Zm-.22,6.76.15-4.29.06-2.14h.34l2.34,0,4.73,0,4.73,0,2.34,0h.34l.06,2.12.15,4.29c.2,4.8.49,9,.86,12.09-6.06.06-11.91.2-17,.42C35,22.13,35.29,17.78,35.51,12.75Z"/><path d="M41.2,86.19A4.71,4.71,0,0,1,44,87.59,6,6,0,0,1,45.42,90a3.24,3.24,0,0,0,1.48.19c.7,0,1.24-.13,1.26-.29a7.06,7.06,0,0,0-.9-4.54,8.24,8.24,0,0,0-5-3.84,8.76,8.76,0,0,0-7.41,1.4,9,9,0,0,0,0,14.55A8.88,8.88,0,0,0,38.49,99a8.72,8.72,0,0,0,3.73-.17,8.22,8.22,0,0,0,5-3.85,7,7,0,0,0,.89-4.53c0-.17-.67-.3-1.43-.28a2.64,2.64,0,0,0-1.25.19A6,6,0,0,1,44,92.74a4.74,4.74,0,0,1-2.83,1.41A4.17,4.17,0,0,1,38,93.2a3.94,3.94,0,0,1,0-6.07A4.15,4.15,0,0,1,41.2,86.19Z"/><path d="M67.87,86.19a4.71,4.71,0,0,1,2.82,1.4A6,6,0,0,1,72.09,90a3.24,3.24,0,0,0,1.48.19c.7,0,1.24-.13,1.26-.29a7.06,7.06,0,0,0-.9-4.54,8.24,8.24,0,0,0-5-3.84,8.76,8.76,0,0,0-7.41,1.4,9,9,0,0,0,0,14.55A8.89,8.89,0,0,0,65.17,99a8.72,8.72,0,0,0,3.73-.17,8.22,8.22,0,0,0,5-3.85,7,7,0,0,0,.89-4.53c0-.17-.67-.3-1.43-.28a2.64,2.64,0,0,0-1.25.19,6,6,0,0,1-1.42,2.39,4.74,4.74,0,0,1-2.83,1.41,4.17,4.17,0,0,1-3.18-.95,3.94,3.94,0,0,1,0-6.07A4.15,4.15,0,0,1,67.87,86.19Z"/><path d="M94.63,57.85a2.63,2.63,0,0,0-.41-4.77c-5.75-2-11.36-3.69-16-4.89L67.49,45.46c-.24-.06,0,.34.58.88a7.13,7.13,0,0,0,1.28,1c2.77,1.29,6.33,3,10.19,5,2.36,1.17,4.86,2.34,7.51,3.5q-2.71,1.42-5.46,2.9a2.73,2.73,0,0,0-1.12,1.12c-1,1.81-1.94,3.62-2.89,5.43-1.12-2.58-2.27-5-3.43-7.35-1.92-3.87-3.71-7.47-5-10.28a7.91,7.91,0,0,0-1.21-1.46c-.49-.48-.81-.67-.76-.45l2.76,10.89c1.21,4.66,2.88,10.25,4.86,15.86a2.65,2.65,0,0,0,4.8.41l0-.06c1.35-2.41,2.71-4.9,4.07-7.41,1.9,2.8,5.39,5.78,7.65,6.14a7.17,7.17,0,0,0,1.09-1h0a6,6,0,0,0,.85-1C92.94,67.36,90,63.88,87.16,62c2.52-1.37,5-2.74,7.4-4.09Z"/><text x="0" y="115" fill="#000000" font-size="5px" font-weight="bold" font-family="'Helvetica Neue', Helvetica, Arial-Unicode, Arial, Sans-serif">Created by Gregor Cresnar</text><text x="0" y="120" fill="#000000" font-size="5px" font-weight="bold" font-family="'Helvetica Neue', Helvetica, Arial-Unicode, Arial, Sans-serif">from the Noun Project</text></svg>